# xmcd
# 
# Track frame offsets:
#     150
#     22113
#     40149
#     61407
#     74383
#     93656
#     118379
#     139783
#     156709
#     180048
# 
# Disc length: 2602
# 
# Revision: 2
# Processed by: cddbd v1.5.2PL0 Copyright (c) Steve Scherf et al.
# Submitted via: fre:ac v1.0.27
# 
DISCID=910a280a
DTITLE=Otis Taylor - Below The Fold
DYEAR=2005
DGENRE=Blues
TTITLE0=Feel like lightning
TTITLE1=Boy plays mandolin
TTITLE2=Hookers in the street
TTITLE3=Mama's got a friend
TTITLE4=Working for the Pullman Company
TTITLE5=Your children sleep good tonight
TTITLE6=Didn't know much about education
TTITLE7=Went to Hermes
TTITLE8=Government lied
TTITLE9=Right side of heaven
EXTD=
EXTT0=
EXTT1=
EXTT2=
EXTT3=
EXTT4=
EXTT5=
EXTT6=
EXTT7=
EXTT8=
EXTT9=
PLAYORDER=
